{"title":"Red.2008.SWESUB.DVDRip.XviD.-Zen_Bud","uid":5620397,"size":735691054,"categoryP":"video","categoryS":"movies","magnet":"?xt=urn:btih:a9feacd613dea9f773193716d3056372067f12b1&amp;dn=Red.2008.SWESUB.DVDRip.XviD.-Zen_Bud&amp;tr=udp%3A%2F%2Ftracker.openbittorrent.com%3A80&amp;tr=udp%3A%2F%2Fopen.demonii.com%3A1337&amp;tr=udp%3A%2F%2Ftracker.coppersurfer.tk%3A6969&amp;tr=udp%3A%2F%2Fexodus.desync.com%3A6969","seeders":1,"leechers":1,"uploader":"Zen_Bud","files":-1,"time":1276245809,"description":"General\nComplete name                    : Red.avi\nFormat                           : AVI\nFile size                        : 702 MiB\nDuration                         : 1h 29mn\nOverall bit rate                 : 1 097 Kbps\n\nVideo\nID                               : 0\nFormat                           : MPEG-4 Visual\nCodec ID/Hint                    : XviD\nDuration                         : 1h 29mn\nBit rate                         : 972 Kbps\nWidth                            : 720 pixels\nHeight                           : 576 pixels\nDisplay aspect ratio             : 16:9\nStream size                      : 622 MiB (89%)\nWriting library                  : XviD 1.1.2 (UTC 2006-11-01)\n\nAudio\nID                               : 1\nFormat                           : MPEG Audio\nCodec ID/Hint                    : MP3\nDuration                         : 1h 29mn\nBit rate                         : 112 Kbps\nChannel(s)                       : 2 channels\nSampling rate                    : 48.0 KHz\nStream size                      : 71.6 MiB (10%)\nWriting library                  : LAME3.98\n\n","torrent":{"xt":"urn:btih:a9feacd613dea9f773193716d3056372067f12b1","amp;dn":"Red.2008.SWESUB.DVDRip.XviD.-Zen_Bud","amp;tr":["udp%3A%2F%2Ftracker.openbittorrent.com%3A80","udp%3A%2F%2Fopen.demonii.com%3A1337","udp%3A%2F%2Ftracker.coppersurfer.tk%3A6969","udp%3A%2F%2Fexodus.desync.com%3A6969"],"infoHash":"a9feacd613dea9f773193716d3056372067f12b1","infoHashBuffer":{"type":"Buffer","data":[169,254,172,214,19,222,169,247,115,25,55,22,211,5,99,114,6,127,18,177]},"announce":[],"urlList":[]}}